<svg width="22" height="23" fill="none" xmlns="http://www.w3.org/2000/svg"><g clip-path="url(#a)" fill-rule="evenodd" clip-rule="evenodd"><path d="M.654 3.776C0 5.06 0 6.74 0 10.1v2.8c0 3.36 0 5.04.654 6.324a6 6 0 0 0 2.622 2.622C4.56 22.5 6.24 22.5 9.6 22.5h2.8c3.36 0 5.04 0 6.324-.654a6 6 0 0 0 2.622-2.622C22 17.94 22 16.26 22 12.9v-2.8c0-3.36 0-5.04-.654-6.324a6 6 0 0 0-2.622-2.622C17.44.5 15.76.5 12.4.5H9.6c-3.36 0-5.04 0-6.324.654A6 6 0 0 0 .654 3.776z" fill="#CB11AB"/><path d="m17.735 7.18-8.148 8.804-4.33-4.816 1.488-1.337 2.863 3.185 6.66-7.195 1.467 1.358z" fill="#fff"/></g><defs><clipPath id="a"><path fill="#fff" transform="translate(0 .5)" d="M0 0h22v22H0z"/></clipPath></defs></svg>