<svg width="24" height="25" viewBox="0 0 24 25" fill="none" xmlns="http://www.w3.org/2000/svg">
<rect width="24" height="25" fill="#E3E3E3"/>
<g id="&#208;&#154;&#208;&#190;&#209;&#128;&#208;&#183;&#208;&#184;&#208;&#189;&#208;&#176;-006">
<rect width="1024" height="780" transform="translate(-668 -199)" fill="#F6F6FA"/>
<g id="Frame 277132152">
<g id="Frame 277132153">
<g id="&#208;&#152;&#209;&#130;&#208;&#190;&#208;&#179;&#208;&#190;" filter="url(#filter0_d_7_43)">
<rect x="28" y="-183" width="303" height="604" rx="16" fill="white" shape-rendering="crispEdges"/>
</g>
</g>
</g>
<rect id="Rectangle 1911" x="-668" y="-199" width="1024" height="780" fill="#05000A" fill-opacity="0.3"/>
<g id="&#208;&#144;&#208;&#178;&#209;&#130;&#208;&#190;&#209;&#128;&#208;&#184;&#208;&#183;&#208;&#176;&#209;&#134;&#208;&#184;&#209;&#143; 2.0" filter="url(#filter1_d_7_43)">
<g clip-path="url(#clip0_7_43)">
<rect x="-356" y="-19.5" width="400" height="408" rx="16" fill="white"/>
<g id="Frame 4350">
<g id="Frame 3862" opacity="0.9">
<g id="search-close">
<path id="Union" fill-rule="evenodd" clip-rule="evenodd" d="M4.92961 18.1568C4.53909 18.5473 4.53909 19.1805 4.92961 19.571C5.32014 19.9615 5.9533 19.9615 6.34383 19.571L12.0008 13.914L17.658 19.5711C18.0485 19.9616 18.6817 19.9616 19.0722 19.5711C19.4627 19.1806 19.4627 18.5474 19.0722 18.1569L13.4151 12.4998L19.0717 6.84309C19.4623 6.45257 19.4623 5.8194 19.0717 5.42888C18.6812 5.03835 18.0481 5.03836 17.6575 5.42888L12.0008 11.0856L6.34427 5.42899C5.95374 5.03846 5.32058 5.03846 4.93005 5.42899C4.53953 5.81951 4.53953 6.45267 4.93005 6.8432L10.5866 12.4998L4.92961 18.1568Z" fill="#9797AF"/>
</g>
</g>
</g>
</g>
</g>
</g>
<defs>
<filter id="filter0_d_7_43" x="18" y="-191" width="323" height="624" filterUnits="userSpaceOnUse" color-interpolation-filters="sRGB">
<feFlood flood-opacity="0" result="BackgroundImageFix"/>
<feColorMatrix in="SourceAlpha" type="matrix" values="0 0 0 0 0 0 0 0 0 0 0 0 0 0 0 0 0 0 127 0" result="hardAlpha"/>
<feOffset dy="2"/>
<feGaussianBlur stdDeviation="5"/>
<feComposite in2="hardAlpha" operator="out"/>
<feColorMatrix type="matrix" values="0 0 0 0 0 0 0 0 0 0 0 0 0 0 0 0 0 0 0.15 0"/>
<feBlend mode="normal" in2="BackgroundImageFix" result="effect1_dropShadow_7_43"/>
<feBlend mode="normal" in="SourceGraphic" in2="effect1_dropShadow_7_43" result="shape"/>
</filter>
<filter id="filter1_d_7_43" x="-366" y="-25.5" width="420" height="428" filterUnits="userSpaceOnUse" color-interpolation-filters="sRGB">
<feFlood flood-opacity="0" result="BackgroundImageFix"/>
<feColorMatrix in="SourceAlpha" type="matrix" values="0 0 0 0 0 0 0 0 0 0 0 0 0 0 0 0 0 0 127 0" result="hardAlpha"/>
<feOffset dy="4"/>
<feGaussianBlur stdDeviation="5"/>
<feColorMatrix type="matrix" values="0 0 0 0 0 0 0 0 0 0 0 0 0 0 0 0 0 0 0.2 0"/>
<feBlend mode="normal" in2="BackgroundImageFix" result="effect1_dropShadow_7_43"/>
<feBlend mode="normal" in="SourceGraphic" in2="effect1_dropShadow_7_43" result="shape"/>
</filter>
<clipPath id="clip0_7_43">
<rect x="-356" y="-19.5" width="400" height="408" rx="16" fill="white"/>
</clipPath>
</defs>
</svg>
